<svg width="25" height="24" viewBox="0 0 25 24" fill="none" xmlns="http://www.w3.org/2000/svg">
<g id="user">
<g id="Vector">
<path d="M15.0596 9.82843C15.8066 9.07828 16.2263 8.06087 16.2263 7C16.2263 5.93913 15.8066 4.92172 15.0596 4.17157C14.3125 3.42143 13.2993 3 12.2429 3C11.1864 3 10.1732 3.42143 9.42621 4.17157C8.67918 4.92172 8.25951 5.93913 8.25951 7C8.25951 8.06087 8.67918 9.07828 9.42621 9.82843C10.1732 10.5786 11.1864 11 12.2429 11C13.2993 11 14.3125 10.5786 15.0596 9.82843Z" stroke="white" stroke-width="2" stroke-linecap="round" stroke-linejoin="round"/>
<path d="M7.31371 16.0503C8.621 14.7375 10.3941 14 12.2429 14C14.0917 14 15.8648 14.7375 17.1721 16.0503C18.4794 17.363 19.2138 19.1435 19.2138 21H5.27197C5.27197 19.1435 6.00641 17.363 7.31371 16.0503Z" stroke="white" stroke-width="2" stroke-linecap="round" stroke-linejoin="round"/>
</g>
</g>
</svg>
